Coordinates
version=1
nRows=5
nColumns=46
inDegrees=yes

Units are S.I. units (second, meters, Newtons, ...)
Angles are in degrees.

endheader
time	pelvis_tilt	pelvis_list	pelvis_rotation	pelvis_tx	pelvis_ty	pelvis_tz	bb_angle	bb_tx	bb_ty	bb_tz	hip_flexion_r	hip_adduction_r	hip_rotation_r	knee_angle_r	knee_angle_r_beta	ankle_angle_r	subtalar_angle_r	mtp_angle_r	crank_angle_r	hip_flexion_l	hip_adduction_l	hip_rotation_l	knee_angle_l	knee_angle_l_beta	ankle_angle_l	subtalar_angle_l	mtp_angle_l	crank_angle_l	lumbar_extension	lumbar_bending	lumbar_rotation	arm_flex_r	arm_add_r	arm_rot_r	elbow_flex_r	pro_sup_r	wrist_flex_r	wrist_dev_r	arm_flex_l	arm_add_l	arm_rot_l	elbow_flex_l	pro_sup_l	wrist_flex_l	wrist_dev_l
      7.50500000	    -21.23353256	     -3.01090642	      4.13030364	      0.36129897	      1.14904535	     -0.25090303	      0.00000000	      0.50000000	      0.00000000	      0.25000000	     58.95857387	     -2.22508431	      0.68509901	     98.94246939	      1.72687186	    -10.81277505	    -13.92288492	      0.00000000	      0.00000000	     42.67460777	     -1.75487539	      8.74482818	     36.42427511	      0.63572353	    -16.33615175	    -14.90098443	      0.00000000	      0.00000000	    -67.55702197	      4.56496004	     -3.85008871	     55.89596123	    -15.60988987	     20.36309735	     77.93976913	     52.16947869	      0.00000000	      0.00000000	     49.11264265	    -24.56456156	     18.23450914	     89.87461029	     50.51666143	      0.00000000	      0.00000000
      7.51000000	    -21.05481616	     -3.47350693	      3.99100861	      0.36120831	      1.14826688	     -0.25106524	      0.00000000	      0.50000000	      0.00000000	      0.25000000	     60.26609155	     -2.02472483	      0.42677588	    100.77766508	      1.75890207	     -9.83407120	    -13.45321857	      0.00000000	      0.00000000	     41.08557024	     -2.53317729	      8.34862585	     34.26057481	      0.59795983	    -18.13876732	    -14.72974038	      0.00000000	      0.00000000	    -67.57309489	      5.11219256	     -4.12548679	     56.88506943	    -14.91573507	     22.00118256	     76.81002738	     52.18851250	      0.00000000	      0.00000000	     47.48859295	    -24.73741378	     15.81144212	     90.86956402	     50.50033102	      0.00000000	      0.00000000
      7.51500000	    -21.10245102	     -4.14063043	      3.89661342	      0.36079845	      1.14699508	     -0.25098031	      0.00000000	      0.50000000	      0.00000000	      0.25000000	     61.83589123	     -1.69501531	     -0.08529043	    102.46585644	      1.78836657	     -9.18360914	    -13.47506263	      0.00000000	      0.00000000	     39.91620233	     -3.49511607	      8.04822247	     32.45510023	      0.56644836	    -19.14379640	    -13.81331708	      0.00000000	      0.00000000	    -67.35441775	      5.68836541	     -3.45623880	     57.01035192	    -14.75772105	     22.11354129	     76.84641249	     52.19856566	      0.00000000	      0.00000000	     47.12898265	    -24.82845822	     15.74331911	     90.80861656	     50.48618780	      0.00000000	      0.00000000
      7.52000000	    -21.02538744	     -4.50695929	      3.63534548	      0.36061339	      1.14605655	     -0.25059787	      0.00000000	      0.50000000	      0.00000000	      0.25000000	     63.28830960	     -1.50992985	     -0.31909310	    104.06633561	      1.81630020	     -8.43697765	    -13.08720219	      0.00000000	      0.00000000	     38.52606477	     -4.39454819	      7.18300647	     30.63763308	      0.53472757	    -20.27787463	    -12.70957146	      0.00000000	      0.00000000	    -67.27394844	      5.96822989	     -3.17230012	     57.16705011	    -14.55202523	     22.62793949	     76.78403275	     52.24136187	      0.00000000	      0.00000000	     46.53506812	    -24.86081611	     15.09353119	     90.75223692	     50.42728071	      0.00000000	      0.00000000
      7.52500000	    -21.05187150	     -5.03662608	      3.57305050	      0.36032404	      1.14489086	     -0.25048207	      0.00000000	      0.50000000	      0.00000000	      0.25000000	     64.81245375	     -1.40694395	     -0.83006396	    105.50729746	      1.84144973	     -7.93387660	    -13.13084547	      0.00000000	      0.00000000	     37.38308957	     -5.31436882	      6.51653408	     29.04078383	      0.50685730	    -21.18609237	    -11.39713285	      0.00000000	      0.00000000	    -67.08421440	      6.55441029	     -2.67645829	     57.31224296	    -14.39982096	     22.87845512	     76.75960378	     52.26439604	      0.00000000	      0.00000000	     46.07534860	    -24.95865292	     14.86842429	     90.73029000	     50.41256555	      0.00000000	      0.00000000
